<svg width="173" height="19" viewBox="0 0 173 19" fill="none" xmlns="http://www.w3.org/2000/svg">
<path d="M8.64844 18C8.49219 17.6953 8.37891 17.3164 8.30859 16.8633C7.48828 17.7773 6.42188 18.2344 5.10938 18.2344C3.86719 18.2344 2.83594 17.875 2.01562 17.1562C1.20312 16.4375 0.796875 15.5312 0.796875 14.4375C0.796875 13.0938 1.29297 12.0625 2.28516 11.3438C3.28516 10.625 4.72656 10.2617 6.60938 10.2539H8.16797V9.52734C8.16797 8.94141 8.01562 8.47266 7.71094 8.12109C7.41406 7.76953 6.94141 7.59375 6.29297 7.59375C5.72266 7.59375 5.27344 7.73047 4.94531 8.00391C4.625 8.27734 4.46484 8.65234 4.46484 9.12891H1.07812C1.07812 8.39453 1.30469 7.71484 1.75781 7.08984C2.21094 6.46484 2.85156 5.97656 3.67969 5.625C4.50781 5.26562 5.4375 5.08594 6.46875 5.08594C8.03125 5.08594 9.26953 5.48047 10.1836 6.26953C11.1055 7.05078 11.5664 8.15234 11.5664 9.57422V15.0703C11.5742 16.2734 11.7422 17.1836 12.0703 17.8008V18H8.64844ZM5.84766 15.6445C6.34766 15.6445 6.80859 15.5352 7.23047 15.3164C7.65234 15.0898 7.96484 14.7891 8.16797 14.4141V12.2344H6.90234C5.20703 12.2344 4.30469 12.8203 4.19531 13.9922L4.18359 14.1914C4.18359 14.6133 4.33203 14.9609 4.62891 15.2344C4.92578 15.5078 5.33203 15.6445 5.84766 15.6445ZM93.4102 8.49609C92.9492 8.43359 92.543 8.40234 92.1914 8.40234C90.9102 8.40234 90.0703 8.83594 89.6719 9.70312V18H86.2852V5.32031H89.4844L89.5781 6.83203C90.2578 5.66797 91.1992 5.08594 92.4023 5.08594C92.7773 5.08594 93.1289 5.13672 93.457 5.23828L93.4102 8.49609Z" fill="#5C80FF"/>
<path d="M17.2852 5.32031L17.3906 6.78516C18.2969 5.65234 19.5117 5.08594 21.0352 5.08594C22.3789 5.08594 23.3789 5.48047 24.0352 6.26953C24.6914 7.05859 25.0273 8.23828 25.043 9.80859V18H21.6562V9.89062C21.6562 9.17188 21.5 8.65234 21.1875 8.33203C20.875 8.00391 20.3555 7.83984 19.6289 7.83984C18.6758 7.83984 17.9609 8.24609 17.4844 9.05859V18H14.0977V5.32031H17.2852ZM27.0938 11.5664C27.0938 9.58984 27.5352 8.01562 28.418 6.84375C29.3086 5.67188 30.5234 5.08594 32.0625 5.08594C33.2969 5.08594 34.3164 5.54688 35.1211 6.46875V0H38.5195V18H35.4609L35.2969 16.6523C34.4531 17.707 33.3672 18.2344 32.0391 18.2344C30.5469 18.2344 29.3477 17.6484 28.4414 16.4766C27.543 15.2969 27.0938 13.6602 27.0938 11.5664ZM30.4805 11.8125C30.4805 13 30.6875 13.9102 31.1016 14.543C31.5156 15.1758 32.1172 15.4922 32.9062 15.4922C33.9531 15.4922 34.6914 15.0508 35.1211 14.168V9.16406C34.6992 8.28125 33.9688 7.83984 32.9297 7.83984C31.2969 7.83984 30.4805 9.16406 30.4805 11.8125ZM48.2695 8.49609C47.8086 8.43359 47.4023 8.40234 47.0508 8.40234C45.7695 8.40234 44.9297 8.83594 44.5312 9.70312V18H41.1445V5.32031H44.3438L44.4375 6.83203C45.1172 5.66797 46.0586 5.08594 47.2617 5.08594C47.6367 5.08594 47.9883 5.13672 48.3164 5.23828L48.2695 8.49609ZM55.5117 18.2344C53.6523 18.2344 52.1367 17.6641 50.9648 16.5234C49.8008 15.3828 49.2188 13.8633 49.2188 11.9648V11.6367C49.2188 10.3633 49.4648 9.22656 49.957 8.22656C50.4492 7.21875 51.1445 6.44531 52.043 5.90625C52.9492 5.35938 53.9805 5.08594 55.1367 5.08594C56.8711 5.08594 58.2344 5.63281 59.2266 6.72656C60.2266 7.82031 60.7266 9.37109 60.7266 11.3789V12.7617H52.6523C52.7617 13.5898 53.0898 14.2539 53.6367 14.7539C54.1914 15.2539 54.8906 15.5039 55.7344 15.5039C57.0391 15.5039 58.0586 15.0312 58.793 14.0859L60.457 15.9492C59.9492 16.668 59.2617 17.2305 58.3945 17.6367C57.5273 18.0352 56.5664 18.2344 55.5117 18.2344ZM55.125 7.82812C54.4531 7.82812 53.9062 8.05469 53.4844 8.50781C53.0703 8.96094 52.8047 9.60938 52.6875 10.4531H57.3984V10.1836C57.3828 9.43359 57.1797 8.85547 56.7891 8.44922C56.3984 8.03516 55.8438 7.82812 55.125 7.82812ZM73.6875 13.3945L75.3516 5.32031H78.6211L75.3867 18H72.5508L70.1484 10.0195L67.7461 18H64.9219L61.6875 5.32031H64.957L66.6094 13.3828L68.9297 5.32031H71.3789L73.6875 13.3945ZM98.625 18H95.2266V5.32031H98.625V18ZM95.0273 2.03906C95.0273 1.53125 95.1953 1.11328 95.5312 0.785156C95.875 0.457031 96.3398 0.292969 96.9258 0.292969C97.5039 0.292969 97.9648 0.457031 98.3086 0.785156C98.6523 1.11328 98.8242 1.53125 98.8242 2.03906C98.8242 2.55469 98.6484 2.97656 98.2969 3.30469C97.9531 3.63281 97.4961 3.79688 96.9258 3.79688C96.3555 3.79688 95.8945 3.63281 95.543 3.30469C95.1992 2.97656 95.0273 2.55469 95.0273 2.03906ZM106.699 15.5039C107.324 15.5039 107.832 15.332 108.223 14.9883C108.613 14.6445 108.816 14.1875 108.832 13.6172H112.008C112 14.4766 111.766 15.2656 111.305 15.9844C110.844 16.6953 110.211 17.25 109.406 17.6484C108.609 18.0391 107.727 18.2344 106.758 18.2344C104.945 18.2344 103.516 17.6602 102.469 16.5117C101.422 15.3555 100.898 13.7617 100.898 11.7305V11.5078C100.898 9.55469 101.418 7.99609 102.457 6.83203C103.496 5.66797 104.922 5.08594 106.734 5.08594C108.32 5.08594 109.59 5.53906 110.543 6.44531C111.504 7.34375 111.992 8.54297 112.008 10.043H108.832C108.816 9.38672 108.613 8.85547 108.223 8.44922C107.832 8.03516 107.316 7.82812 106.676 7.82812C105.887 7.82812 105.289 8.11719 104.883 8.69531C104.484 9.26562 104.285 10.1953 104.285 11.4844V11.8359C104.285 13.1406 104.484 14.0781 104.883 14.6484C105.281 15.2188 105.887 15.5039 106.699 15.5039ZM117.246 6.70312C118.145 5.625 119.273 5.08594 120.633 5.08594C123.383 5.08594 124.777 6.68359 124.816 9.87891V18H121.43V9.97266C121.43 9.24609 121.273 8.71094 120.961 8.36719C120.648 8.01562 120.129 7.83984 119.402 7.83984C118.41 7.83984 117.691 8.22266 117.246 8.98828V18H113.859V0H117.246V6.70312ZM134.719 18C134.562 17.6953 134.449 17.3164 134.379 16.8633C133.559 17.7773 132.492 18.2344 131.18 18.2344C129.938 18.2344 128.906 17.875 128.086 17.1562C127.273 16.4375 126.867 15.5312 126.867 14.4375C126.867 13.0938 127.363 12.0625 128.355 11.3438C129.355 10.625 130.797 10.2617 132.68 10.2539H134.238V9.52734C134.238 8.94141 134.086 8.47266 133.781 8.12109C133.484 7.76953 133.012 7.59375 132.363 7.59375C131.793 7.59375 131.344 7.73047 131.016 8.00391C130.695 8.27734 130.535 8.65234 130.535 9.12891H127.148C127.148 8.39453 127.375 7.71484 127.828 7.08984C128.281 6.46484 128.922 5.97656 129.75 5.625C130.578 5.26562 131.508 5.08594 132.539 5.08594C134.102 5.08594 135.34 5.48047 136.254 6.26953C137.176 7.05078 137.637 8.15234 137.637 9.57422V15.0703C137.645 16.2734 137.812 17.1836 138.141 17.8008V18H134.719ZM131.918 15.6445C132.418 15.6445 132.879 15.5352 133.301 15.3164C133.723 15.0898 134.035 14.7891 134.238 14.4141V12.2344H132.973C131.277 12.2344 130.375 12.8203 130.266 13.9922L130.254 14.1914C130.254 14.6133 130.402 14.9609 130.699 15.2344C130.996 15.5078 131.402 15.6445 131.918 15.6445ZM147.363 8.49609C146.902 8.43359 146.496 8.40234 146.145 8.40234C144.863 8.40234 144.023 8.83594 143.625 9.70312V18H140.238V5.32031H143.438L143.531 6.83203C144.211 5.66797 145.152 5.08594 146.355 5.08594C146.73 5.08594 147.082 5.13672 147.41 5.23828L147.363 8.49609ZM148.242 11.5664C148.242 9.58984 148.684 8.01562 149.566 6.84375C150.457 5.67188 151.672 5.08594 153.211 5.08594C154.445 5.08594 155.465 5.54688 156.27 6.46875V0H159.668V18H156.609L156.445 16.6523C155.602 17.707 154.516 18.2344 153.188 18.2344C151.695 18.2344 150.496 17.6484 149.59 16.4766C148.691 15.2969 148.242 13.6602 148.242 11.5664ZM151.629 11.8125C151.629 13 151.836 13.9102 152.25 14.543C152.664 15.1758 153.266 15.4922 154.055 15.4922C155.102 15.4922 155.84 15.0508 156.27 14.168V9.16406C155.848 8.28125 155.117 7.83984 154.078 7.83984C152.445 7.83984 151.629 9.16406 151.629 11.8125ZM169.16 14.4961C169.16 14.082 168.953 13.7578 168.539 13.5234C168.133 13.2812 167.477 13.0664 166.57 12.8789C163.555 12.2461 162.047 10.9648 162.047 9.03516C162.047 7.91016 162.512 6.97266 163.441 6.22266C164.379 5.46484 165.602 5.08594 167.109 5.08594C168.719 5.08594 170.004 5.46484 170.965 6.22266C171.934 6.98047 172.418 7.96484 172.418 9.17578H169.031C169.031 8.69141 168.875 8.29297 168.562 7.98047C168.25 7.66016 167.762 7.5 167.098 7.5C166.527 7.5 166.086 7.62891 165.773 7.88672C165.461 8.14453 165.305 8.47266 165.305 8.87109C165.305 9.24609 165.48 9.55078 165.832 9.78516C166.191 10.0117 166.793 10.2109 167.637 10.3828C168.48 10.5469 169.191 10.7344 169.77 10.9453C171.559 11.6016 172.453 12.7383 172.453 14.3555C172.453 15.5117 171.957 16.4492 170.965 17.168C169.973 17.8789 168.691 18.2344 167.121 18.2344C166.059 18.2344 165.113 18.0469 164.285 17.6719C163.465 17.2891 162.82 16.7695 162.352 16.1133C161.883 15.4492 161.648 14.7344 161.648 13.9688H164.859C164.891 14.5703 165.113 15.0312 165.527 15.3516C165.941 15.6719 166.496 15.832 167.191 15.832C167.84 15.832 168.328 15.7109 168.656 15.4688C168.992 15.2188 169.16 14.8945 169.16 14.4961Z" fill="#FFB800"/>
</svg>
